<svg xmlns="http://www.w3.org/2000/svg" xmlns:xlink="http://www.w3.org/1999/xlink" width="485" height="100" viewBox="230 58 485 63" xml:space="preserve">
  <switch>
    <foreignObject requiredExtensions="http://ns.adobe.com/AdobeIllustrator/10.0/" x="0" y="0" width="1" height="1"/>
    <g>
      <path fill="#2b467c" d="M249.563 76.794c3.511-.52 7.684-.91 12.254-.91 8.28 0 14.175 1.885 18.083 5.46 3.975 3.575 6.293 8.645 6.293 15.73 0 7.15-2.252 13.001-6.425 17.031-4.174 4.095-11.063 6.305-19.739 6.305-4.107 0-7.552-.195-10.466-.52zm5.762 38.741c1.457.26 3.577.325 5.829.325 12.32 0 19.011-6.761 19.011-18.591.065-10.335-5.896-16.9-18.084-16.9-2.98 0-5.232.26-6.756.585zm63.459-16.056H301.43v15.796h19.342v4.745h-25.104V76.209h24.11v4.745H301.43V94.8h17.354zm11.462 20.542V76.209h6.293l14.307 22.166c3.313 5.135 5.896 9.75 8.016 14.235l.132-.065c-.529-5.85-.662-11.18-.662-18.005V76.209h5.432v43.812h-5.829L343.76 97.79c-3.113-4.875-6.094-9.88-8.346-14.625l-.199.065c.331 5.525.464 10.791.464 18.071v18.721zm54.053-39.002H370.72v-4.81h33.053v4.81h-13.645v39.001h-5.829zm26.431-4.225c2.914-.585 7.088-.91 11.062-.91 6.16 0 10.135 1.105 12.917 3.575 2.252 1.95 3.511 4.94 3.511 8.32 0 5.785-3.71 9.62-8.413 11.181v.194c3.445 1.17 5.498 4.291 6.558 8.841 1.458 6.11 2.518 10.335 3.444 12.025h-5.961c-.729-1.235-1.723-5.005-2.98-10.466-1.325-6.045-3.71-8.32-8.942-8.515h-5.432v18.98h-5.763zm5.763 19.956h5.896c6.16 0 10.068-3.315 10.068-8.321 0-5.655-4.174-8.125-10.268-8.19-2.782 0-4.769.26-5.696.52zm70.215.91c0 15.08-9.34 23.075-20.732 23.075-11.791 0-20.07-8.97-20.07-22.23 0-13.911 8.81-23.011 20.732-23.011 12.187 0 20.07 9.165 20.07 22.166m-34.643.715c0 9.359 5.166 17.745 14.241 17.745 9.141 0 14.308-8.255 14.308-18.2 0-8.71-4.637-17.811-14.241-17.811-9.539 0-14.308 8.645-14.308 18.266m82.272-.715c0 15.08-9.34 23.075-20.732 23.075-11.791 0-20.07-8.97-20.07-22.23 0-13.911 8.81-23.011 20.732-23.011 12.187 0 20.07 9.165 20.07 22.166m-34.643.715c0 9.359 5.166 17.745 14.241 17.745 9.141 0 14.308-8.255 14.308-18.2 0-8.71-4.637-17.811-14.241-17.811-9.539 0-14.308 8.645-14.308 18.266m44.119-21.646c2.782-.455 6.425-.845 11.062-.845 5.696 0 9.87 1.3 12.52 3.64 2.45 2.08 3.908 5.265 3.908 9.166 0 3.965-1.192 7.085-3.444 9.36-3.048 3.185-8.016 4.81-13.646 4.81-1.723 0-3.312-.064-4.637-.39v17.551h-5.763zm5.762 21.125c1.259.325 2.849.455 4.77.455 6.955 0 11.194-3.315 11.194-9.36 0-5.785-4.174-8.58-10.532-8.58-2.518 0-4.438.195-5.432.455zm54.583 1.625h-17.354v15.796h19.342v4.745h-25.104V76.209h24.11v4.745h-18.348V94.8h17.354zm11.461-22.685c2.914-.585 7.088-.91 11.062-.91 6.16 0 10.135 1.105 12.917 3.575 2.252 1.95 3.511 4.94 3.511 8.32 0 5.785-3.71 9.62-8.413 11.181v.194c3.445 1.17 5.498 4.291 6.558 8.841 1.458 6.11 2.518 10.335 3.444 12.025h-5.961c-.729-1.235-1.723-5.005-2.98-10.466-1.325-6.045-3.71-8.32-8.942-8.515h-5.432v18.98h-5.763zm5.763 19.956h5.896c6.16 0 10.068-3.315 10.068-8.321 0-5.655-4.174-8.125-10.268-8.19-2.782 0-4.769.26-5.696.52z"/>
      <path fill="#0db5a8" d="M666.009 80.122q-1.805 0-3.162-.652-1.358-.652-2.18-1.882c-.822-1.23-.899-1.816-1.057-2.988h3.053q.206 1.377 1.086 2.014c.88.637 1.341.637 2.26.637q1.482 0 2.305-.791.82-.791.821-2.227v-.645q0-1.596-.777-2.468c-.777-.872-1.253-.872-2.201-.872h-1.512v-2.842h1.512q1.262 0 1.944-.747t.682-2.109v-.659q0-1.26-.726-1.948t-2.063-.688q-1.13 0-1.915.637c-.785.637-.883 1.096-1.078 2.014h-3.038q.454-2.637 2.032-4.08c1.578-1.443 2.385-1.443 3.999-1.443q2.76 0 4.271 1.45c1.511 1.45 1.512 2.329 1.512 4.087v.352q0 1.597-.866 2.776c-.866 1.179-1.394 1.365-2.45 1.736q1.746.366 2.707 1.707c.961 1.341.962 2.029.962 3.406v.352q0 2.798-1.6 4.336-1.6 1.537-4.521 1.537m16.179 0q-2.832 0-4.388-1.685c-1.556-1.685-1.556-2.705-1.556-4.746v-.015q0-1.377.382-2.922a14.2 14.2 0 0 1 1.101-2.981l4.638-9.17h3.229l-5.445 10.62.016-.527q.762-1.45 2.715-1.45 2.51 0 3.889 1.663 1.379 1.662 1.379 4.695v.015q0 3.091-1.556 4.797c-1.556 1.706-2.506 1.706-4.404 1.706m0-2.871q1.438 0 2.201-.879c.763-.879.764-1.421.764-2.505v-.015q0-1.787-.808-2.761c-.808-.974-1.306-.974-2.304-.974q-1.336 0-2.069.981c-.733.981-.733 1.577-.733 2.769v.015q0 1.626.771 2.498c.771.872 1.239.871 2.178.871m16.31 2.871q-3.053 0-4.571-1.633t-1.519-4.417V64.39q0-2.827 1.541-4.438c1.541-1.611 2.544-1.611 4.549-1.611q3.023 0 4.557 1.604c1.534 1.604 1.534 2.551 1.534 4.446v9.683q0 2.827-1.534 4.438c-1.534 1.611-2.541 1.61-4.557 1.61m0-2.842q1.644 0 2.37-.857c.726-.857.727-1.355.727-2.351V64.39q0-1.509-.727-2.358c-.727-.849-1.274-.85-2.37-.85s-1.886.283-2.37.85q-.725.85-.726 2.358v9.683q0 1.494.726 2.351.726.856 2.37.856"/>
    </g>
  </switch>
</svg>
